<?xml version="1.0" encoding="UTF-8"?>
<!DOCTYPE svg PUBLIC "-//W3C//DTD SVG 1.1//EN" "http://www.w3.org/Graphics/SVG/1.1/DTD/svg11.dtd">
<!-- Creator: CorelDRAW -->
<svg xmlns="http://www.w3.org/2000/svg" xml:space="preserve" width="177.8mm" height="177.8mm" version="1.1" style="shape-rendering:geometricPrecision; text-rendering:geometricPrecision; image-rendering:optimizeQuality; fill-rule:evenodd; clip-rule:evenodd"
viewBox="0 0 17780 17780"
 xmlns:xlink="http://www.w3.org/1999/xlink"
 xmlns:xodm="http://www.corel.com/coreldraw/odm/2003">
 <defs>
  <style type="text/css">
   <![CDATA[
    .fil0 {fill:#003F69;fill-rule:nonzero}
    .fil1 {fill:#F56A49;fill-rule:nonzero}
   ]]>
  </style>
 </defs>
 <g id="Layer_x0020_1">
  <metadata id="CorelCorpID_0Corel-Layer"/>
  <g id="_1500550034032">
   <path class="fil0" d="M3813.21 14025.16l0 -804.7 114.96 0 0 804.7 -114.96 0zm702.96 0l0 -804.7 94.28 0 532.24 661.01 -49.43 0 0 -661.01 114.96 0 0 804.7 -94.27 0 -532.25 -661.01 49.43 0 0 661.01 -114.96 0zm1280.05 0l0 -804.7 339.13 0c85.84,0 161.51,16.87 227.04,50.59 65.52,33.72 116.5,80.85 152.89,141.39 36.4,60.54 54.61,130.67 54.61,210.38 0,79.69 -18.21,149.82 -54.61,210.36 -36.39,60.54 -87.37,107.67 -152.89,141.39 -65.53,33.72 -141.2,50.59 -227.04,50.59l-339.13 0zm114.96 -100.02l217.27 0c66.67,0 124.35,-12.64 173.01,-37.93 48.67,-25.3 86.42,-60.74 113.24,-106.34 26.82,-45.59 40.23,-98.28 40.23,-158.05 0,-60.56 -13.41,-113.43 -40.23,-158.65 -26.82,-45.22 -64.57,-80.47 -113.24,-105.76 -48.66,-25.29 -106.34,-37.93 -173.01,-37.93l-217.27 0 0 604.66zm1514.57 109.22c-105.77,0 -188.92,-30.28 -249.46,-90.82 -60.55,-60.55 -90.81,-149.07 -90.81,-265.55l0 -457.53 114.96 0 0 452.93c0,89.66 19.73,155.19 59.19,196.58 39.48,41.37 95.23,62.07 167.27,62.07 72.81,0 128.94,-20.7 168.4,-62.07 39.48,-41.39 59.21,-106.92 59.21,-196.58l0 -452.93 111.52 0 0 457.53c0,116.48 -30.09,205 -90.24,265.55 -60.18,60.54 -143.52,90.82 -250.04,90.82zm1157.04 0c-61.3,0 -119.93,-9.39 -175.89,-28.18 -55.94,-18.76 -100,-43.09 -132.19,-72.98l42.53 -89.67c30.66,26.82 69.74,49.05 117.26,66.67 47.51,17.63 96.94,26.44 148.29,26.44 46.76,0 84.69,-5.36 113.81,-16.1 29.12,-10.72 50.58,-25.47 64.37,-44.25 13.8,-18.78 20.7,-40.04 20.7,-63.81 0,-27.58 -9.01,-49.81 -27.02,-66.67 -18.01,-16.86 -41.37,-30.47 -70.12,-40.81 -28.74,-10.34 -60.35,-19.34 -94.84,-27.01 -34.48,-7.67 -69.16,-16.68 -104.03,-27.02 -34.87,-10.34 -66.68,-23.57 -95.42,-39.65 -28.73,-16.1 -51.92,-37.76 -69.54,-64.96 -17.63,-27.21 -26.45,-62.27 -26.45,-105.19 0,-41.39 10.93,-79.51 32.77,-114.37 21.83,-34.88 55.55,-62.85 101.16,-83.93 45.6,-21.08 103.65,-31.61 174.16,-31.61 46.75,0 93.11,6.13 139.1,18.4 45.98,12.25 85.83,29.89 119.55,52.87l-37.93 91.98c-34.49,-23 -70.9,-39.67 -109.22,-50.01 -38.32,-10.36 -75.48,-15.52 -111.5,-15.52 -45.22,0 -82.39,5.74 -111.51,17.24 -29.13,11.49 -50.38,26.82 -63.79,45.99 -13.43,19.15 -20.14,40.62 -20.14,64.37 0,28.36 9.01,50.97 27.02,67.82 18.01,16.87 41.39,30.28 70.12,40.23 28.75,9.97 60.37,18.98 94.84,27.02 34.5,8.06 69.18,17.06 104.04,27.01 34.88,9.97 66.69,23 95.42,39.09 28.74,16.1 51.93,37.55 69.55,64.37 17.62,26.83 26.44,61.32 26.44,103.46 0,40.62 -11.12,78.38 -33.34,113.24 -22.22,34.88 -56.52,62.84 -102.88,83.92 -46.37,21.08 -104.81,31.62 -175.32,31.62zm974.26 -9.2l0 -704.68 -275.9 0 0 -100.02 665.61 0 0 100.02 -275.91 0 0 704.68 -113.8 0zm861.6 0l0 -804.7 311.5 0c70.52,0 130.67,11.11 180.49,33.33 49.81,22.23 88.13,54.42 114.95,96.56 26.83,42.17 40.24,92.35 40.24,150.61 0,58.24 -13.41,108.25 -40.24,150.01 -26.82,41.76 -65.14,73.76 -114.95,95.99 -49.82,22.23 -109.97,33.35 -180.49,33.35l-250.61 0 51.73 -52.89 0 297.74 -114.95 0zm538.01 0l-204.62 -291.99 122.99 0 206.92 291.99 -125.29 0zm-423.06 -286.24l-51.73 -56.33 247.17 0c73.57,0 129.32,-15.91 167.27,-47.71 37.93,-31.81 56.89,-76.45 56.89,-133.92 0,-57.49 -18.96,-101.93 -56.89,-133.35 -37.95,-31.42 -93.7,-47.13 -167.27,-47.13l-247.17 0 51.73 -57.49 0 475.93zm1067.37 286.24l0 -804.7 114.96 0 0 804.7 -114.96 0zm807.58 -457.53l413.84 0 0 97.72 -413.84 0 0 -97.72zm10.34 357.51l469.03 0 0 100.02 -583.98 0 0 -804.7 567.9 0 0 100.02 -452.95 0 0 604.66zm1236.36 109.22c-61.3,0 -119.93,-9.39 -175.88,-28.18 -55.95,-18.76 -100.01,-43.09 -132.2,-72.98l42.53 -89.67c30.67,26.82 69.74,49.05 117.26,66.67 47.52,17.63 96.95,26.44 148.29,26.44 46.76,0 84.69,-5.36 113.82,-16.1 29.12,-10.72 50.57,-25.47 64.36,-44.25 13.8,-18.78 20.7,-40.04 20.7,-63.81 0,-27.58 -9.01,-49.81 -27.01,-66.67 -18.01,-16.86 -41.38,-30.47 -70.13,-40.81 -28.74,-10.34 -60.35,-19.34 -94.84,-27.01 -34.48,-7.67 -69.16,-16.68 -104.02,-27.02 -34.88,-10.34 -66.69,-23.57 -95.42,-39.65 -28.74,-16.1 -51.93,-37.76 -69.55,-64.96 -17.62,-27.21 -26.45,-62.27 -26.45,-105.19 0,-41.39 10.93,-79.51 32.77,-114.37 21.84,-34.88 55.56,-62.85 101.16,-83.93 45.6,-21.08 103.65,-31.61 174.16,-31.61 46.75,0 93.11,6.13 139.1,18.4 45.99,12.25 85.83,29.89 119.55,52.87l-37.93 91.98c-34.49,-23 -70.9,-39.67 -109.22,-50.01 -38.32,-10.36 -75.48,-15.52 -111.5,-15.52 -45.21,0 -82.39,5.74 -111.51,17.24 -29.12,11.49 -50.38,26.82 -63.79,45.99 -13.43,19.15 -20.13,40.62 -20.13,64.37 0,28.36 9,50.97 27.01,67.82 18.01,16.87 41.39,30.28 70.13,40.23 28.75,9.97 60.36,18.98 94.84,27.02 34.49,8.06 69.17,17.06 104.04,27.01 34.87,9.97 66.68,23 95.42,39.09 28.73,16.1 51.92,37.55 69.54,64.37 17.63,26.83 26.44,61.32 26.44,103.46 0,40.62 -11.11,78.38 -33.34,113.24 -22.22,34.88 -56.52,62.84 -102.88,83.92 -46.37,21.08 -104.81,31.62 -175.32,31.62z"/>
   <g>
    <path class="fil0" d="M9939.66 3745.64l0 2150.39c-270.06,243.89 -571.28,493.19 -903.22,736.16l0 -1983.31 -1806.46 0 -903.24 -903.24 3612.92 0z"/>
    <path class="fil0" d="M9648.82 10384.89c-446.64,882.9 -1363.42,1489.88 -2418.84,1489.88 -1340.41,0 -2456.36,-978.2 -2672.24,-2258.09l923.11 0c200.97,778.14 909.11,1354.85 1749.13,1354.85 785.81,0 1456,-504 1703.93,-1205.82 228.52,174.32 468.78,382.53 714.91,619.18z"/>
    <path class="fil1" d="M13222.54 11874.78l-1121.82 0c-787.64,-1109.22 -2575.27,-3245.65 -4052.99,-3570.95l0 1210.88 -366.15 777.57 -366.13 -777.54 0 -3410.01 732.28 0 0 261.6 -373.66 0 0 126.54 373.66 0 0 140.77 -373.66 0 0 126.56 373.66 0 0 140.76 -373.66 0 0 126.56 373.66 0 0 113.8c28.65,-14.47 57.16,-29.07 85.54,-43.76 2091.42,-1079.37 3480.6,-2728.22 3957.06,-3351.92l1132.21 0c-13.55,19.86 -277.75,369.88 -396.52,527.49 -480.49,638.56 -1809.52,2233.54 -3860.15,3400.96 735.77,342.7 1530.08,963.59 2374.78,1858.14 974.58,1032.4 1853.44,2299.64 1881.89,2342.55zm-6386.23 -5997.05l1690.58 0 0 -538.3 -1690.58 0 0 538.3z"/>
   </g>
  </g>
 </g>
</svg>
